<svg width="30" height="30" viewBox="0 0 30 30" fill="none" xmlns="http://www.w3.org/2000/svg">
<path d="M15 0C6.71572 0 0 6.71572 0 15C0 23.2843 6.71572 30 15 30C23.2843 30 30 23.2843 30 15C30 6.71572 23.2843 0 15 0ZM15 28.125C7.75125 28.125 1.875 22.2488 1.875 15C1.875 7.75125 7.75125 1.875 15 1.875C22.2488 1.875 28.125 7.75125 28.125 15C28.125 22.2488 22.2488 28.125 15 28.125Z" fill="#474747"/>
<path d="M17.1469 6.84375L9.64687 14.3438C9.28336 14.7094 9.28336 15.2999 9.64687 15.6656L17.1469 23.1656L18.4688 21.8344L11.6344 15L18.4688 8.16563L17.1469 6.84375Z" fill="#474747"/>
</svg>
