<svg width="240" height="124" viewBox="0 0 240 124" fill="none" xmlns="http://www.w3.org/2000/svg">
<path d="M120 110.834C186.274 110.834 240 109.331 240 107.477C240 105.624 186.274 104.121 120 104.121C53.7258 104.121 0 105.624 0 107.477C0 109.331 53.7258 110.834 120 110.834Z" fill="#E6E6E6"/>
<path d="M183.952 71.1078C183.8 71.1099 183.648 71.112 183.495 71.112C183.341 71.112 183.19 71.1099 183.038 71.1078C175.005 70.9252 169.183 65.9065 170.665 60.6408L174.279 47.7952L175.192 44.5449L191.382 44.8209L192.366 48.0007L196.239 60.5163C197.879 65.811 192.057 70.9252 183.952 71.1078Z" fill="#3F3D56"/>
<path opacity="0.2" d="M192.366 48.0007C189.606 49.5786 186.474 50.3914 183.295 50.3553C180.115 50.3192 177.003 49.4354 174.279 47.7952L175.192 44.5449L191.382 44.8209L192.366 48.0007Z" fill="black"/>
<path d="M191.683 61.067C192.382 58.4606 194.681 54.7007 201.127 50.1673C212.37 42.2599 205.663 36.3309 205.373 36.0825C204.763 35.5614 204.853 34.9764 205.582 34.7765C206.005 34.6918 206.442 34.6987 206.863 34.7966C207.283 34.8945 207.678 35.0811 208.021 35.3441C208.385 35.6451 216.783 42.8165 204.097 51.738C192.679 59.7683 195.107 65.0102 195.135 65.0605C195.441 65.6211 194.95 66.0697 194.038 66.0637C193.126 66.0576 192.138 65.5987 191.831 65.0386C191.766 64.9201 191.031 63.4935 191.683 61.067Z" fill="#3F3D56"/>
<path d="M176.023 72.98C175.777 72.98 175.534 72.9317 175.308 72.8378C175.081 72.7439 174.875 72.6063 174.702 72.4329C174.528 72.2594 174.39 72.0535 174.297 71.8268C174.203 71.6002 174.154 71.3573 174.154 71.112V63.0173C174.154 62.5219 174.351 62.0468 174.702 61.6964C175.052 61.3461 175.527 61.1493 176.023 61.1493C176.518 61.1493 176.993 61.3461 177.343 61.6964C177.694 62.0468 177.891 62.5219 177.891 63.0173V71.112C177.891 71.3573 177.842 71.6002 177.748 71.8268C177.655 72.0535 177.517 72.2594 177.343 72.4329C177.17 72.6063 176.964 72.7439 176.737 72.8378C176.511 72.9317 176.268 72.98 176.023 72.98Z" fill="#3F3D56"/>
<path d="M177.66 53.7629C177.558 53.9857 177.412 54.1862 177.232 54.3529C177.052 54.5195 176.841 54.6491 176.611 54.7342C176.381 54.8192 176.137 54.8582 175.891 54.8487C175.646 54.8393 175.405 54.7816 175.183 54.6791L167.828 51.2958C167.379 51.0884 167.03 50.711 166.859 50.2465C166.687 49.7821 166.707 49.2686 166.914 48.8188C167.121 48.3691 167.498 48.0198 167.962 47.8479C168.427 47.6759 168.94 47.6953 169.39 47.9018L176.744 51.2851C176.967 51.3876 177.168 51.533 177.334 51.7131C177.501 51.8931 177.63 52.1041 177.715 52.3342C177.801 52.5643 177.84 52.8089 177.83 53.054C177.821 53.2991 177.763 53.54 177.66 53.7629Z" fill="#3F3D56"/>
<path d="M189.329 53.7629C189.432 53.9857 189.577 54.1862 189.757 54.3529C189.937 54.5195 190.148 54.6491 190.379 54.7342C190.609 54.8193 190.853 54.8582 191.098 54.8487C191.344 54.8393 191.584 54.7816 191.807 54.6791L199.161 51.2958C199.611 51.0887 199.961 50.7113 200.133 50.2466C200.304 49.782 200.285 49.2681 200.078 48.818C199.87 48.3679 199.493 48.0186 199.028 47.8467C198.564 47.6749 198.05 47.6947 197.6 47.9018L190.246 51.2851C190.023 51.3876 189.822 51.5331 189.656 51.7131C189.489 51.8931 189.359 52.1041 189.274 52.3342C189.189 52.5643 189.15 52.8089 189.16 53.054C189.169 53.2992 189.227 53.54 189.329 53.7629Z" fill="#3F3D56"/>
<path d="M190.967 72.98C191.213 72.98 191.455 72.9317 191.682 72.8378C191.909 72.7439 192.115 72.6063 192.288 72.4329C192.462 72.2594 192.599 72.0535 192.693 71.8268C192.787 71.6002 192.835 71.3573 192.835 71.112V63.0173C192.835 62.5219 192.639 62.0468 192.288 61.6964C191.938 61.3461 191.463 61.1493 190.967 61.1493C190.472 61.1493 189.997 61.3461 189.646 61.6964C189.296 62.0468 189.099 62.5219 189.099 63.0173V71.112C189.099 71.3573 189.147 71.6002 189.241 71.8268C189.335 72.0535 189.473 72.2594 189.646 72.4329C189.82 72.6063 190.026 72.7439 190.252 72.8378C190.479 72.9317 190.722 72.98 190.967 72.98Z" fill="#3F3D56"/>
<path d="M198.774 20.5753C198.936 20.372 199.052 20.1367 199.116 19.8851C199.18 19.6334 199.19 19.3711 199.145 19.1154L198.128 13.1346L197.112 7.15374C197.057 6.83082 196.918 6.52803 196.709 6.27582C196.5 6.0236 196.228 5.83085 195.921 5.71693C195.614 5.60301 195.282 5.57193 194.959 5.62682C194.636 5.68172 194.333 5.82065 194.081 6.02965L189.41 9.90051L186.595 12.2326C184.718 11.8988 182.8 11.8699 180.914 12.1469L178.203 9.90051L173.531 6.02965C173.279 5.82065 172.976 5.68172 172.653 5.62683C172.33 5.57193 171.999 5.60301 171.692 5.71693C171.384 5.83086 171.113 6.02361 170.904 6.27582C170.695 6.52803 170.556 6.83082 170.501 7.15374L169.484 13.1346L168.467 19.1154C168.413 19.4297 168.441 19.7528 168.549 20.0531C166.806 22.724 165.812 25.8131 165.668 28.9988C165.524 32.1846 166.236 35.3507 167.731 38.1678C169.225 40.9849 171.448 43.3501 174.166 45.0174C176.885 46.6847 180.001 47.5931 183.189 47.6482C186.378 47.7033 189.523 46.903 192.298 45.3307C195.072 43.7583 197.375 41.4713 198.966 38.7075C200.557 35.9437 201.378 32.804 201.345 29.6152C201.311 26.4264 200.423 23.3048 198.774 20.5753Z" fill="#3F3D56"/>
<path d="M173.063 8.48051C172.952 8.48067 172.842 8.50061 172.739 8.5394C172.586 8.59494 172.451 8.69011 172.347 8.81513C172.244 8.94015 172.175 9.0905 172.149 9.25074L170.916 16.5036C170.889 16.6635 170.904 16.8277 170.961 16.9798C171.017 17.1318 171.113 17.2663 171.238 17.3698C171.362 17.4733 171.512 17.542 171.672 17.5692C171.832 17.5964 171.996 17.581 172.148 17.5246L179.046 14.9658C179.198 14.9094 179.333 14.814 179.436 14.6891C179.54 14.5643 179.609 14.4144 179.636 14.2545C179.663 14.0947 179.648 13.9305 179.591 13.7785C179.535 13.6264 179.439 13.4919 179.314 13.3885L179.314 13.3883L173.649 8.69425C173.485 8.55655 173.278 8.48091 173.063 8.48051Z" fill="#E6E6E6"/>
<path d="M194.549 8.48051C194.335 8.48091 194.127 8.55655 193.963 8.69425L188.298 13.3885C188.173 13.4919 188.078 13.6264 188.021 13.7785C187.965 13.9305 187.95 14.0947 187.977 14.2545C188.004 14.4144 188.073 14.5643 188.176 14.6891C188.28 14.814 188.414 14.9094 188.566 14.9658L195.464 17.5246C195.616 17.581 195.78 17.5964 195.94 17.5692C196.1 17.542 196.25 17.4733 196.375 17.3698C196.5 17.2663 196.595 17.1318 196.652 16.9798C196.708 16.8277 196.724 16.6635 196.696 16.5036L195.463 9.25074C195.437 9.0905 195.369 8.94015 195.265 8.81513C195.161 8.69011 195.026 8.59494 194.874 8.5394C194.77 8.50061 194.66 8.48067 194.549 8.48051Z" fill="#E6E6E6"/>
<path d="M183.495 34.7898C184.871 34.7898 185.986 33.6747 185.986 32.2991C185.986 30.9236 184.871 29.8085 183.495 29.8085C182.119 29.8085 181.004 30.9236 181.004 32.2991C181.004 33.6747 182.119 34.7898 183.495 34.7898Z" fill="#E6E6E6"/>
<path d="M183.495 31.6765C184.412 31.6765 185.155 31.3977 185.155 31.0538C185.155 30.7099 184.412 30.4311 183.495 30.4311C182.578 30.4311 181.834 30.7099 181.834 31.0538C181.834 31.3977 182.578 31.6765 183.495 31.6765Z" fill="#3F3D56"/>
<path d="M182.25 33.752H184.533V36.554C184.533 36.7039 184.503 36.8524 184.446 36.9909C184.388 37.1294 184.304 37.2552 184.198 37.3612C184.092 37.4672 183.966 37.5513 183.828 37.6087C183.689 37.666 183.541 37.6956 183.391 37.6956C183.088 37.6956 182.798 37.5753 182.584 37.3612C182.37 37.1471 182.25 36.8568 182.25 36.554V33.752H182.25Z" fill="#FF6584"/>
<path d="M183.633 5.50102C183.514 5.74929 183.397 6.00025 183.288 6.25634C182 9.26042 181.566 12.5616 182.033 15.7967C182.266 15.4576 182.512 15.1044 182.762 14.7473C182.227 11.6424 182.528 8.45118 183.633 5.50102Z" fill="#3F3D56"/>
<path d="M185.502 7.78413C185.382 8.0324 185.266 8.28336 185.156 8.53945C183.868 11.5435 183.434 14.8447 183.901 18.0798C184.135 17.7407 184.38 17.3875 184.63 17.0304C184.095 13.9256 184.396 10.7343 185.502 7.78413Z" fill="#3F3D56"/>
<path d="M191.261 52.6062L190.998 49.2596L190.735 45.913C190.721 45.7323 190.659 45.5585 190.556 45.4091C190.454 45.2598 190.313 45.14 190.15 45.062C189.986 44.9839 189.805 44.9503 189.624 44.9645C189.444 44.9788 189.27 45.0403 189.12 45.1429L186.354 47.0441L184.333 48.4324C184.204 48.2813 184.044 48.1599 183.863 48.0766C183.683 47.9934 183.486 47.9503 183.287 47.9503C183.088 47.9503 182.892 47.9934 182.711 48.0766C182.531 48.1599 182.371 48.2813 182.241 48.4324L180.221 47.0441L177.454 45.1429C177.305 45.0403 177.131 44.9787 176.95 44.9645C176.77 44.9503 176.588 44.9839 176.425 45.062C176.261 45.14 176.121 45.2597 176.018 45.4091C175.916 45.5585 175.854 45.7323 175.84 45.913L175.577 49.2596L175.314 52.6062C175.299 52.7869 175.333 52.9681 175.411 53.1317C175.489 53.2953 175.609 53.4355 175.758 53.5381C175.908 53.6408 176.081 53.7023 176.262 53.7165C176.443 53.7307 176.624 53.6971 176.788 53.6191L179.818 52.1737L182.307 50.986C182.435 51.1158 182.588 51.2189 182.756 51.2892C182.924 51.3596 183.105 51.3958 183.287 51.3958C183.47 51.3958 183.65 51.3596 183.818 51.2892C183.987 51.2189 184.139 51.1158 184.267 50.986L186.757 52.1737L189.787 53.6191C189.951 53.6971 190.132 53.7307 190.313 53.7165C190.493 53.7023 190.667 53.6408 190.816 53.5381C190.966 53.4355 191.086 53.2953 191.164 53.1317C191.242 52.9681 191.275 52.7869 191.261 52.6062Z" fill="#A55EEA"/>
<path d="M180.174 30.2236C180.518 30.2236 180.797 29.9448 180.797 29.6009C180.797 29.257 180.518 28.9782 180.174 28.9782C179.83 28.9782 179.551 29.257 179.551 29.6009C179.551 29.9448 179.83 30.2236 180.174 30.2236Z" fill="#E6E6E6"/>
<path d="M186.816 30.2236C187.16 30.2236 187.439 29.9448 187.439 29.6009C187.439 29.257 187.16 28.9782 186.816 28.9782C186.472 28.9782 186.193 29.257 186.193 29.6009C186.193 29.9448 186.472 30.2236 186.816 30.2236Z" fill="#E6E6E6"/>
<path d="M63.0116 65.6068C63.1632 65.6089 63.3147 65.6109 63.4683 65.6109C63.6219 65.6109 63.7734 65.6089 63.9249 65.6068C71.9577 65.4241 77.78 60.4054 76.2979 55.1398L72.6842 42.2942L71.7709 39.0439L55.5808 39.3199L54.5969 42.4996L50.7237 55.0152C49.0839 60.31 54.9062 65.4241 63.0116 65.6068Z" fill="#3F3D56"/>
<path opacity="0.2" d="M54.5969 42.4996C57.3574 44.0775 60.4889 44.8904 63.6684 44.8543C66.8479 44.8181 69.9602 43.9344 72.6842 42.2942L71.7709 39.0439L55.5807 39.3199L54.5969 42.4996Z" fill="black"/>
<path d="M53.3138 54.0435C51.5663 51.987 47.8798 49.5722 40.1134 48.2331C26.5684 45.8966 30.0929 37.6682 30.2493 37.3193C30.5773 36.5875 30.2456 36.0972 29.5012 36.2284C29.0822 36.3331 28.6904 36.5262 28.3522 36.7946C28.0139 37.0631 27.7369 37.4007 27.5398 37.7849C27.3397 38.2128 22.818 48.2878 38.1019 50.9231C51.8575 53.2959 51.9066 59.0724 51.9029 59.1298C51.8663 59.7674 52.5017 59.9629 53.3235 59.5672C54.1453 59.1714 54.842 58.3338 54.8797 57.6963C54.8874 57.5616 54.9409 55.9578 53.3138 54.0435Z" fill="#3F3D56"/>
<path d="M70.9406 67.4789C71.1859 67.4789 71.4289 67.4306 71.6555 67.3368C71.8822 67.2429 72.0881 67.1053 72.2616 66.9318C72.435 66.7584 72.5726 66.5524 72.6665 66.3258C72.7604 66.0992 72.8087 65.8563 72.8087 65.6109V57.5163C72.8081 57.0212 72.611 56.5467 72.2608 56.1969C71.9105 55.847 71.4357 55.6505 70.9406 55.6505C70.4455 55.6505 69.9707 55.847 69.6205 56.1969C69.2702 56.5467 69.0731 57.0212 69.0725 57.5163V65.6109C69.0725 65.8563 69.1208 66.0992 69.2147 66.3258C69.3086 66.5524 69.4462 66.7584 69.6197 66.9318C69.7931 67.1053 69.9991 67.2429 70.2257 67.3368C70.4524 67.4306 70.6953 67.4789 70.9406 67.4789Z" fill="#3F3D56"/>
<path d="M69.3027 48.2619C69.4053 48.4847 69.5507 48.6852 69.7307 48.8518C69.9107 49.0185 70.1218 49.1481 70.3519 49.2331C70.582 49.3182 70.8266 49.3572 71.0718 49.3477C71.3169 49.3383 71.5578 49.2806 71.7806 49.1781L79.1347 45.7947C79.3578 45.6924 79.5586 45.547 79.7255 45.367C79.8924 45.187 80.0222 44.9759 80.1075 44.7457C80.1928 44.5155 80.2318 44.2708 80.2224 44.0255C80.213 43.7802 80.1554 43.5391 80.0528 43.3161C79.9502 43.0931 79.8046 42.8925 79.6244 42.7258C79.4443 42.5591 79.233 42.4295 79.0027 42.3445C78.7724 42.2595 78.5276 42.2207 78.2823 42.2304C78.037 42.24 77.796 42.2979 77.5731 42.4007L70.219 45.7841C69.9961 45.8866 69.7957 46.032 69.629 46.212C69.4623 46.392 69.3328 46.6031 69.2477 46.8332C69.1626 47.0633 69.1237 47.3079 69.1331 47.553C69.1425 47.7981 69.2002 48.039 69.3027 48.2619Z" fill="#3F3D56"/>
<path d="M57.6338 48.2619C57.5313 48.4847 57.3859 48.6852 57.2058 48.8518C57.0258 49.0185 56.8147 49.1481 56.5846 49.2331C56.3545 49.3182 56.1099 49.3572 55.8648 49.3477C55.6197 49.3383 55.3788 49.2806 55.1559 49.1781L47.8018 45.7947C47.5787 45.6924 47.378 45.547 47.211 45.367C47.0441 45.187 46.9143 44.9759 46.8291 44.7457C46.7438 44.5155 46.7047 44.2708 46.7141 44.0255C46.7235 43.7802 46.7812 43.5391 46.8838 43.3161C46.9864 43.0931 47.1319 42.8925 47.3121 42.7258C47.4923 42.5591 47.7036 42.4295 47.9339 42.3445C48.1642 42.2595 48.409 42.2207 48.6543 42.2304C48.8996 42.24 49.1406 42.2979 49.3635 42.4007L56.7175 45.7841C56.9404 45.8866 57.1409 46.032 57.3076 46.212C57.4742 46.392 57.6038 46.6031 57.6889 46.8332C57.774 47.0633 57.8129 47.3079 57.8034 47.553C57.794 47.7981 57.7364 48.039 57.6338 48.2619Z" fill="#3F3D56"/>
<path d="M55.9959 67.4789C55.7506 67.4789 55.5077 67.4306 55.281 67.3368C55.0544 67.2429 54.8484 67.1053 54.6749 66.9318C54.5015 66.7584 54.3639 66.5524 54.27 66.3258C54.1761 66.0992 54.1278 65.8563 54.1278 65.6109V57.5163C54.1284 57.0212 54.3255 56.5467 54.6758 56.1969C55.026 55.847 55.5008 55.6505 55.9959 55.6505C56.491 55.6505 56.9658 55.847 57.3161 56.1969C57.6663 56.5467 57.8634 57.0212 57.864 57.5163V65.6109C57.864 65.8563 57.8157 66.0992 57.7218 66.3258C57.6279 66.5524 57.4903 66.7584 57.3169 66.9318C57.1434 67.1053 56.9374 67.2429 56.7108 67.3368C56.4841 67.4306 56.2412 67.4789 55.9959 67.4789Z" fill="#3F3D56"/>
<path d="M78.4143 14.552C78.5219 14.2517 78.55 13.9287 78.4957 13.6144L77.479 7.63354L76.4623 1.65271C76.4074 1.32979 76.2684 1.02701 76.0594 0.774792C75.8504 0.522579 75.5787 0.329828 75.2716 0.215905C74.9645 0.101982 74.6328 0.0709015 74.3098 0.125794C73.9869 0.180686 73.6841 0.319617 73.4318 0.528616L68.7604 4.39948L66.0494 6.64587C64.1632 6.36887 62.2448 6.39779 60.3678 6.73153L57.5534 4.39947L52.882 0.528608C52.6298 0.319608 52.327 0.180678 52.004 0.125786C51.6811 0.0708929 51.3494 0.101969 51.0423 0.215893C50.7351 0.329816 50.4634 0.522571 50.2544 0.774784C50.0454 1.027 49.9065 1.32978 49.8516 1.65271L48.8348 7.63354L47.8181 13.6144C47.7733 13.8701 47.7831 14.1324 47.847 14.384C47.9109 14.6357 48.0274 14.8709 48.1889 15.0742C46.5377 17.8044 45.6484 20.9273 45.6136 24.1177C45.5788 27.3081 46.3997 30.4496 47.9909 33.2152C49.5821 35.9808 51.8855 38.2694 54.6613 39.8429C57.4371 41.4164 60.5838 42.2172 63.7742 42.1621C66.9645 42.107 70.0817 41.1979 72.8015 39.5295C75.5213 37.861 77.7442 35.4942 79.2389 32.6753C80.7336 29.8564 81.4455 26.6885 81.3005 23.5011C81.1555 20.3138 80.1588 17.2236 78.4143 14.552H78.4143Z" fill="#3F3D56"/>
<path d="M73.3136 3.19321L67.6487 7.88723L67.6486 7.88743C67.5238 7.9909 67.4284 8.12541 67.372 8.27743C67.3156 8.42946 67.3002 8.59365 67.3274 8.75351C67.3546 8.91336 67.4234 9.06325 67.5268 9.1881C67.6303 9.31295 67.7648 9.40837 67.9168 9.46477L74.8148 12.0235C74.9668 12.0799 75.131 12.0953 75.2909 12.0682C75.4508 12.041 75.6007 11.9722 75.7256 11.8688C75.8505 11.7653 75.9459 11.6308 76.0023 11.4787C76.0587 11.3267 76.0741 11.1625 76.047 11.0026L74.814 3.7497C74.7878 3.58946 74.7193 3.43911 74.6157 3.31409C74.512 3.18908 74.377 3.0939 74.2244 3.03836C74.1206 2.99958 74.0107 2.97963 73.9 2.97948C73.6855 2.97988 73.478 3.05552 73.3136 3.19321Z" fill="#E6E6E6"/>
<path d="M52.0894 3.03836C51.9368 3.0939 51.8018 3.18907 51.6982 3.31409C51.5945 3.4391 51.526 3.58946 51.4998 3.7497L50.2668 11.0026C50.2397 11.1625 50.2551 11.3267 50.3115 11.4787C50.3679 11.6308 50.4633 11.7653 50.5882 11.8688C50.7131 11.9722 50.863 12.041 51.0229 12.0682C51.1828 12.0953 51.347 12.0799 51.4991 12.0235L58.397 9.46477C58.549 9.40837 58.6835 9.31295 58.787 9.1881C58.8905 9.06325 58.9592 8.91336 58.9864 8.75351C59.0136 8.59365 58.9982 8.42946 58.9418 8.27743C58.8854 8.12541 58.79 7.9909 58.6652 7.88743L53.0002 3.19321C52.8358 3.05552 52.6283 2.97988 52.4138 2.97948C52.3031 2.97964 52.1932 2.99958 52.0894 3.03836Z" fill="#E6E6E6"/>
<path d="M63.4683 29.2888C64.8439 29.2888 65.9591 28.1737 65.9591 26.7981C65.9591 25.4225 64.8439 24.3074 63.4683 24.3074C62.0926 24.3074 60.9775 25.4225 60.9775 26.7981C60.9775 28.1737 62.0926 29.2888 63.4683 29.2888Z" fill="#E6E6E6"/>
<path d="M63.4683 26.1754C64.3854 26.1754 65.1288 25.8966 65.1288 25.5527C65.1288 25.2089 64.3854 24.9301 63.4683 24.9301C62.5512 24.9301 61.8077 25.2089 61.8077 25.5527C61.8077 25.8966 62.5512 26.1754 63.4683 26.1754Z" fill="#3F3D56"/>
<path d="M63.572 32.1945C63.4221 32.1945 63.2736 32.165 63.1351 32.1077C62.9966 32.0503 62.8708 31.9662 62.7648 31.8602C62.6588 31.7542 62.5747 31.6283 62.5173 31.4898C62.4599 31.3513 62.4304 31.2029 62.4304 31.053V28.251H64.7136V31.053C64.7136 31.2029 64.6841 31.3513 64.6267 31.4898C64.5694 31.6283 64.4853 31.7542 64.3793 31.8602C64.2733 31.9662 64.1474 32.0503 64.0089 32.1077C63.8704 32.165 63.7219 32.1945 63.572 32.1945Z" fill="#FF6584"/>
<path d="M63.3297 0C63.4494 0.24827 63.5657 0.499225 63.675 0.755313C64.9632 3.7594 65.3976 7.0606 64.9305 10.2957C64.6968 9.9566 64.4512 9.60336 64.2014 9.24623C64.7364 6.14141 64.4355 2.95015 63.3297 0Z" fill="#3F3D56"/>
<path d="M61.4616 2.28311C61.5813 2.53138 61.6976 2.78234 61.8069 3.03842C63.0951 6.04251 63.5295 9.34372 63.0624 12.5788C62.8287 12.2397 62.5831 11.8865 62.3332 11.5293C62.8683 8.42453 62.5674 5.23326 61.4616 2.28311Z" fill="#3F3D56"/>
<path d="M55.7021 10.7829L55.9653 7.43634L56.2284 4.08973C56.2426 3.90904 56.3042 3.73526 56.4068 3.58588C56.5095 3.4365 56.6496 3.31677 56.8132 3.23872C56.9768 3.16068 57.1581 3.12708 57.3388 3.14129C57.5195 3.1555 57.6933 3.21702 57.8427 3.31967L60.6095 5.22087L62.6299 6.60919C62.759 6.45801 62.9194 6.33661 63.1 6.25338C63.2805 6.17014 63.477 6.12704 63.6758 6.12704C63.8747 6.12704 64.0711 6.17014 64.2517 6.25338C64.4322 6.33661 64.5926 6.45801 64.7217 6.60919L66.7422 5.22087L69.509 3.31967C69.6584 3.21702 69.8321 3.1555 70.0128 3.14129C70.1936 3.12708 70.3748 3.16068 70.5384 3.23872C70.702 3.31677 70.8422 3.4365 70.9448 3.58588C71.0475 3.73526 71.109 3.90904 71.1232 4.08973L71.3864 7.43634L71.6496 10.7829C71.6638 10.9636 71.6302 11.1449 71.5521 11.3085C71.4741 11.4721 71.3543 11.6122 71.205 11.7149C71.0556 11.8175 70.8818 11.8791 70.7011 11.8933C70.5204 11.9075 70.3391 11.8739 70.1755 11.7958L67.1455 10.3504L64.6559 9.16279C64.5278 9.29258 64.3752 9.39563 64.207 9.46597C64.0387 9.53631 63.8582 9.57254 63.6758 9.57254C63.4935 9.57254 63.3129 9.53631 63.1447 9.46597C62.9764 9.39563 62.8238 9.29258 62.6957 9.16279L60.2061 10.3504L57.1761 11.7958C57.0125 11.8739 56.8313 11.9075 56.6506 11.8933C56.4699 11.8791 56.2961 11.8175 56.1467 11.7149C55.9973 11.6122 55.8776 11.4721 55.7995 11.3085C55.7215 11.1449 55.6879 10.9636 55.7021 10.7829Z" fill="#A55EEA"/>
<path d="M66.1666 24.0999C66.1666 24.4438 66.4454 24.0999 66.7893 24.0999C67.1332 24.0999 67.412 24.4438 67.412 24.0999C67.4117 23.935 67.3459 23.7769 67.2292 23.6604C67.1124 23.5439 66.9543 23.4785 66.7893 23.4785C66.6244 23.4785 66.4662 23.5439 66.3495 23.6604C66.2327 23.7769 66.167 23.935 66.1666 24.0999Z" fill="#E6E6E6"/>
<path d="M60.7699 24.0999C60.7699 24.4438 60.4911 24.0999 60.1472 24.0999C59.8033 24.0999 59.5245 24.4438 59.5245 24.0999C59.5249 23.935 59.5906 23.7769 59.7074 23.6604C59.8241 23.5439 59.9823 23.4785 60.1472 23.4785C60.3122 23.4785 60.4703 23.5439 60.5871 23.6604C60.7038 23.7769 60.7696 23.935 60.7699 24.0999Z" fill="#E6E6E6"/>
<path d="M129.856 71.1131V67.1552H110.066V67.4027V71.1131V103.024V106.982H114.024H129.856V103.024H114.024V71.1131H129.856Z" fill="#3F3D56"/>
<path d="M139.504 67.1553V106.982H159.295V67.1553H139.504ZM155.337 103.024H143.462V71.1132H155.337V103.024Z" fill="#A55EEA"/>
<path d="M84.5851 103.024V67.4027H80.6269V103.024V106.982H84.5851H100.418V103.024H84.5851Z" fill="#A55EEA"/>
<path d="M71.7212 71.1131V67.1552H51.9306V67.4027V71.1131V84.9659V88.9239V103.024V106.982H55.8888H71.7212V103.024H55.8888V88.9239H71.7212V84.9659H55.8888V71.1131H71.7212Z" fill="#3F3D56"/>
<path d="M226.583 71.1131V67.1552H206.792V67.4027V71.1131V84.9659V88.9239V103.024V106.982H210.75H226.583V103.024H210.75V88.9239H226.583V84.9659H210.75V71.1131H226.583Z" fill="#A55EEA"/>
<path d="M38.5719 67.4027V100.114L28.1356 89.6786L28.1119 89.7026L28.0897 89.6805L17.4208 100.349V67.2791H13.4626V106.858H17.4208V105.946L28.1138 95.2537L38.5719 105.712V106.982H42.5301V67.4027H38.5719Z" fill="#3F3D56"/>
<path d="M193.681 67.4027V68.3145L182.988 79.007L172.53 68.5494V67.2791H168.571V106.858H172.53V74.1466L182.966 84.5824L182.99 84.5583L183.012 84.5802L193.681 73.9118V106.982H197.639V67.4027H193.681Z" fill="#3F3D56"/>
<path d="M90.4514 43.0212C91.7932 43.0212 92.8809 41.9335 92.8809 40.5918C92.8809 39.2501 91.7932 38.1625 90.4514 38.1625C89.1096 38.1625 88.0219 39.2501 88.0219 40.5918C88.0219 41.9335 89.1096 43.0212 90.4514 43.0212Z" fill="#A55EEA"/>
<path d="M30.524 70.0141C31.8657 70.0141 32.9535 68.9265 32.9535 67.5848C32.9535 66.2431 31.8657 65.1554 30.524 65.1554C29.1822 65.1554 28.0945 66.2431 28.0945 67.5848C28.0945 68.9265 29.1822 70.0141 30.524 70.0141Z" fill="#A55EEA"/>
<path d="M78.5739 124C79.9157 124 81.0034 122.912 81.0034 121.571C81.0034 120.229 79.9157 119.141 78.5739 119.141C77.2321 119.141 76.1444 120.229 76.1444 121.571C76.1444 122.912 77.2321 124 78.5739 124Z" fill="#A55EEA"/>
<path d="M139.581 50.3093C140.923 50.3093 142.011 49.2216 142.011 47.8799C142.011 46.5382 140.923 45.4506 139.581 45.4506C138.239 45.4506 137.152 46.5382 137.152 47.8799C137.152 49.2216 138.239 50.3093 139.581 50.3093Z" fill="#A55EEA"/>
<path d="M211.116 121.841C212.458 121.841 213.546 120.753 213.546 119.411C213.546 118.069 212.458 116.982 211.116 116.982C209.774 116.982 208.687 118.069 208.687 119.411C208.687 120.753 209.774 121.841 211.116 121.841Z" fill="#A55EEA"/>
<path d="M213.546 58.1372C214.887 58.1372 215.975 57.0496 215.975 55.7079C215.975 54.3662 214.887 53.2785 213.546 53.2785C212.204 53.2785 211.116 54.3662 211.116 55.7079C211.116 57.0496 212.204 58.1372 213.546 58.1372Z" fill="#A55EEA"/>
<path d="M182.772 101.866C184.114 101.866 185.202 100.778 185.202 99.4364C185.202 98.0947 184.114 97.0071 182.772 97.0071C181.43 97.0071 180.343 98.0947 180.343 99.4364C180.343 100.778 181.43 101.866 182.772 101.866Z" fill="#A55EEA"/>
</svg>
