<svg width="200" height="127" viewBox="0 0 200 127" fill="none" xmlns="http://www.w3.org/2000/svg">
<g clip-path="url(#clip0)">
<path d="M200 121.789H151.359V122.261H200V121.789Z" fill="#3F3D56"/>
<path d="M180.863 52.7896V56.0457L183.142 59.6272L184.77 53.1152L180.863 52.7896Z" fill="#A0616A"/>
<path d="M180.537 23.8119L182.317 23.3035C182.317 23.3035 185.095 23.8119 185.095 27.0678C185.095 30.3237 185.746 43.3475 185.746 43.3475L185.095 50.8361C185.095 50.8361 186.072 51.1617 185.746 52.1385C185.421 53.1152 184.77 55.3944 184.444 55.0688C184.118 54.7432 184.118 54.092 184.118 54.092C184.118 54.092 178.909 55.0688 179.235 54.092C179.56 53.1152 179.56 50.8361 179.886 50.8361C180.211 50.8361 179.56 41.0683 179.56 41.0683L180.537 23.8119Z" fill="#E6E6E6"/>
<path d="M151.071 51.65L155.304 56.8596L160.513 63.0457L162.141 55.5571L159.23 55.1002L156.28 50.6732L151.071 51.65Z" fill="#A0616A"/>
<path d="M161.653 49.8593C161.653 49.8593 156.769 52.464 160.025 70.0461L161.001 87.6281L161.653 116.606H168.164L169.467 87.9537L173.374 69.7205L179.56 86.0001L177.281 114.978L186.072 116.28L189.002 83.721L183.793 59.6271L179.886 52.7896L179.072 50.9989L161.653 49.8593Z" fill="#2F2E41"/>
<path d="M162.629 115.629L161.653 118.559C161.653 118.559 160.35 123.769 164.908 123.118C169.467 122.466 167.839 119.536 167.839 119.536L167.513 115.629H162.629Z" fill="#2F2E41"/>
<path d="M177.607 114.652C177.607 114.652 176.63 117.908 176.63 119.536C176.63 121.164 177.281 121.872 177.281 121.872C177.281 121.872 195.84 123.118 195.514 121.49C195.189 119.862 193.235 119.211 193.235 119.211L188.677 118.234L185.421 115.629L178.909 114.001L177.607 114.652Z" fill="#2F2E41"/>
<path d="M170.118 15.672C173.535 15.672 176.304 12.9023 176.304 9.48577C176.304 6.06918 173.535 3.2995 170.118 3.2995C166.701 3.2995 163.932 6.06918 163.932 9.48577C163.932 12.9023 166.701 15.672 170.118 15.672Z" fill="#A0616A"/>
<path d="M174.676 12.0904L175.653 21.207L173.374 25.4398L167.839 19.2536L167.188 14.044L174.676 12.0904Z" fill="#A0616A"/>
<path d="M172.723 21.5327L167.616 17.4719L166.536 18.928L158.397 22.1839L158.722 36.51C158.722 36.51 159.048 48.5569 161.001 49.8593L160.187 50.9989L179.56 51.8129V43.0219L183.793 24.1375L176.304 19.9048L175.372 18.5865L172.723 21.5327Z" fill="#E6E6E6"/>
<path d="M159.699 22.8351L159.225 21.8527L158.071 22.1839C158.071 22.1839 155.792 23.1607 154.164 27.3934C152.536 31.6261 147.978 41.0683 147.978 41.0683C147.978 41.0683 146.675 42.6963 147.652 44.3242C148.629 45.9522 149.606 49.5337 149.606 49.5337C149.606 49.5337 148.629 49.2081 149.28 50.5105C149.931 51.8129 149.931 53.1152 151.885 52.7896C153.838 52.464 157.745 51.4873 157.42 50.5105C157.094 49.5337 156.769 47.9057 156.118 47.9057C155.466 47.9057 154.49 43.0219 154.49 43.0219L155.141 40.4171L160.025 34.5564L159.699 22.8351Z" fill="#E6E6E6"/>
<path d="M170.769 4.92746C170.769 4.92746 169.792 4.92746 169.792 4.60187C169.792 4.60187 166.387 4.49793 164.996 6.01506C163.606 7.53219 163.932 5.25305 163.932 5.25305C163.932 5.25305 160.35 3.62508 163.281 1.99712L163.606 2.32271C163.606 2.32271 164.257 1.34593 166.536 1.02034L166.211 0.694747C166.211 0.694747 166.211 0.369153 167.839 0.369153C169.467 0.369153 173.7 -1.25881 174.025 2.32271C174.025 2.32271 176.63 1.34593 176.63 4.60186C176.63 7.85779 176.304 9.48576 176.304 9.48576C176.304 9.48576 175.653 7.85779 174.351 8.83457C173.048 9.81135 170.769 4.92746 170.769 4.92746Z" fill="#2F2E41"/>
<path d="M25.1472 111.815C39.0356 111.815 50.2944 110.652 50.2944 109.217C50.2944 107.782 39.0356 106.618 25.1472 106.618C11.2588 106.618 0 107.782 0 109.217C0 110.652 11.2588 111.815 25.1472 111.815Z" fill="#E6E6E6"/>
<path d="M40.4031 71.3407H9.89124V109.229H40.4031V71.3407Z" fill="#E6E6E6"/>
<path d="M36.094 84.5727H14.2998V85.5785H36.094V84.5727Z" fill="white"/>
<path d="M36.094 88.0933H14.2998V89.0992H36.094V88.0933Z" fill="white"/>
<path d="M36.094 91.6139H14.2998V92.6197H36.094V91.6139Z" fill="white"/>
<path d="M36.094 95.1345H14.2998V96.1404H36.094V95.1345Z" fill="white"/>
<path d="M31.1339 55.6003C31.1325 57.038 30.6124 58.4268 29.6691 59.5117C28.7257 60.5967 27.4226 61.3047 25.999 61.5058C24.5755 61.7069 23.1272 61.3875 21.9203 60.6064C20.7133 59.8252 19.8288 58.6348 19.4293 57.2537C19.0297 55.8727 19.142 54.3939 19.7454 53.089C20.3488 51.784 21.4028 50.7407 22.7139 50.1507C24.0249 49.5606 25.5048 49.4635 26.8816 49.8772C28.2585 50.2908 29.4399 51.1874 30.2087 52.4023C30.8132 53.3594 31.1341 54.4682 31.1339 55.6003Z" fill="#E6E6E6"/>
<path d="M30.2087 52.4023L24.3156 58.2943C23.9452 57.7209 21.8817 55.056 21.8817 55.056C22.1462 54.7888 22.4284 54.5396 22.7264 54.3104L24.4375 56.5919L29.5186 51.5108C29.7763 51.7855 30.0073 52.084 30.2087 52.4023Z" fill="white"/>
<path d="M106.519 110.291C120.407 110.291 131.666 109.128 131.666 107.692C131.666 106.257 120.407 105.094 106.519 105.094C92.6301 105.094 81.3713 106.257 81.3713 107.692C81.3713 109.128 92.6301 110.291 106.519 110.291Z" fill="#E6E6E6"/>
<path d="M121.774 69.8163H91.2626V107.705H121.774V69.8163Z" fill="#E6E6E6"/>
<path d="M117.465 90.9074H95.6711V91.9133H117.465V90.9074Z" fill="white"/>
<path d="M117.465 94.428H95.6711V95.4338H117.465V94.428Z" fill="white"/>
<path d="M117.465 97.9486H95.6711V98.9545H117.465V97.9486Z" fill="white"/>
<path d="M117.465 101.469H95.6711V102.475H117.465V101.469Z" fill="white"/>
<path d="M102.348 83.3019H95.4231C94.9506 80.5702 94.9506 77.7776 95.4231 75.0458H102.348C101.567 77.7426 101.567 80.6052 102.348 83.3019Z" fill="white"/>
<path d="M117.968 75.8191H105.227V76.6573H117.968V75.8191Z" fill="white"/>
<path d="M117.968 78.8367H105.227V79.675H117.968V78.8367Z" fill="white"/>
<path d="M117.968 81.8544H105.227V82.6926H117.968V81.8544Z" fill="white"/>
<path d="M117.968 84.8721H105.227V85.7103H117.968V84.8721Z" fill="white"/>
<path d="M112.505 54.2724C112.504 55.7101 111.984 57.099 111.04 58.1839C110.097 59.2688 108.794 59.9769 107.37 60.1779C105.947 60.379 104.499 60.0597 103.292 59.2785C102.085 58.4974 101.2 57.3069 100.801 55.9259C100.401 54.5448 100.513 53.066 101.117 51.7611C101.72 50.4562 102.774 49.4128 104.085 48.8228C105.396 48.2327 106.876 48.1356 108.253 48.5493C109.63 48.9629 110.811 49.8595 111.58 51.0744C112.185 52.0315 112.505 53.1404 112.505 54.2724Z" fill="#E6E6E6"/>
<path d="M111.58 51.0743L105.687 56.9664C105.317 56.3929 103.253 53.7281 103.253 53.7281C103.518 53.4608 103.8 53.2117 104.098 52.9825L105.809 55.2639L110.89 50.1829C111.148 50.4576 111.379 50.756 111.58 51.0743Z" fill="white"/>
<path d="M66.2986 126.461C82.5755 126.461 95.7705 125.098 95.7705 123.416C95.7705 121.734 82.5755 120.37 66.2986 120.37C50.0217 120.37 36.8267 121.734 36.8267 123.416C36.8267 125.098 50.0217 126.461 66.2986 126.461Z" fill="#3F3D56"/>
<path d="M83.9817 79.699H48.2225V124.103H83.9817V79.699Z" fill="#A55EEA"/>
<path d="M78.8732 89.13H53.3309V90.3089H78.8732V89.13Z" fill="white"/>
<path d="M78.8732 93.256H53.3309V94.4349H78.8732V93.256Z" fill="white"/>
<path d="M78.8732 97.3821H53.3309V98.561H78.8732V97.3821Z" fill="white"/>
<path d="M78.8732 101.508H53.3309V102.687H78.8732V101.508Z" fill="white"/>
<path d="M78.8732 105.634H53.3309V106.813H78.8732V105.634Z" fill="white"/>
<path d="M72.7824 109.957H59.4218V114.672H72.7824V109.957Z" fill="white"/>
<path d="M75.2027 60.6184C75.2006 62.7788 74.419 64.866 73.0014 66.4963C71.5839 68.1266 69.6256 69.1906 67.4864 69.4928C65.3472 69.795 63.1708 69.3151 61.3571 68.1412C59.5434 66.9674 58.2142 65.1784 57.6138 63.1031C57.0134 61.0278 57.1821 58.8055 58.0888 56.8446C58.9956 54.8836 60.5795 53.3158 62.5496 52.4291C64.5197 51.5425 66.7436 51.3965 68.8127 52.0181C70.8818 52.6397 72.6571 53.9871 73.8123 55.8127C74.7209 57.2509 75.203 58.9173 75.2027 60.6184Z" fill="#A55EEA"/>
<path d="M73.8122 55.8127L64.9565 64.6668C64.3999 63.8051 61.2991 59.8006 61.2991 59.8006C61.6965 59.3989 62.1205 59.0246 62.5684 58.6801L65.1397 62.1085L72.7752 54.4731C73.1624 54.8859 73.5096 55.3344 73.8122 55.8127Z" fill="white"/>
</g>
<defs>
<clipPath id="clip0">
<rect width="200" height="126.461" fill="white"/>
</clipPath>
</defs>
</svg>
